<svg width="21" height="23" viewBox="0 0 21 23" fill="none" xmlns="http://www.w3.org/2000/svg">
<path d="M10.7146 4.45057C10.6396 4.45057 10.5646 4.45057 10.5004 4.46207V0.0114886C10.5754 -1.15265e-05 10.6396 0 10.7146 0C13.136 0 15.2145 0.793512 16.918 2.13903C17.4537 2.55304 17.4965 3.39255 17.0251 3.88706L15.5359 5.45109C15.1716 5.8306 14.6145 5.89959 14.1966 5.58908C13.3931 4.99107 12.2467 4.45057 10.7146 4.45057Z" fill="#292D32"/>
<path d="M20.9999 11.7528C20.9999 15.2604 19.8321 18.2044 17.8072 20.217C16.0394 21.9765 13.6074 23 10.7146 23C10.6396 23 10.5754 23 10.5004 22.9885V18.5379C10.5754 18.5494 10.6396 18.5494 10.7146 18.5494C12.311 18.5494 13.5217 18.0779 14.4324 17.3994C15.8573 16.3299 16.5001 14.7314 16.618 13.6734H11.786C11.1968 13.6734 10.7146 13.1559 10.7146 12.5233V10.5568C10.7146 9.92431 11.1968 9.4068 11.786 9.4068H19.875C20.4214 9.4068 20.8821 9.84381 20.9357 10.4303C20.9785 10.8328 20.9999 11.2583 20.9999 11.7528Z" fill="#292D32"/>
<path opacity="0.4" d="M4.60696 9.2229C4.39268 9.93591 4.26412 10.7064 4.26412 11.4999C4.26412 12.2934 4.39268 13.0525 4.61767 13.777C5.45335 16.4795 7.76755 18.446 10.4996 18.538V22.9886C6.40689 22.9081 2.88203 20.3551 1.1571 16.6635H1.14638C0.417841 15.0995 0 13.3515 0 11.4999C0 9.64841 0.417841 7.90035 1.14638 6.33632C2.87131 2.64477 6.39617 0.0917317 10.4996 0.0112305V4.46181C7.97111 4.54231 5.81763 6.22132 4.83195 8.60186C4.74624 8.80886 4.67124 9.01588 4.60696 9.2229Z" fill="#292D32"/>
</svg>
