<svg width="21" height="24" viewBox="0 0 21 24" fill="none" xmlns="http://www.w3.org/2000/svg">
<path fill-rule="evenodd" clip-rule="evenodd" d="M19.4193 20.6024C20.1594 19.5259 20.4354 18.9756 21 17.7675C16.8349 16.2603 16.17 10.6025 20.2849 8.43741C19.0303 6.93024 17.2614 6.05705 15.5929 6.05705C14.3885 6.05705 13.5605 6.35611 12.8203 6.63122C12.193 6.8585 11.6285 7.06183 10.9259 7.06183C10.1732 7.06183 9.50828 6.83457 8.80572 6.59534C8.04045 6.33218 7.23748 6.05705 6.23384 6.05705C4.36455 6.05705 2.36982 7.14556 1.10272 9.01158C-0.678747 11.6431 -0.365109 16.5713 2.50782 20.7818C3.53656 22.289 4.91657 23.9756 6.71058 23.9995C7.46331 24.0115 7.95259 23.7962 8.49209 23.5689C9.10682 23.3058 9.77173 23.0187 10.9385 23.0187C12.1052 23.0067 12.7576 23.3058 13.3723 23.5689C13.8992 23.7962 14.3759 24.0115 15.1161 23.9995C16.9352 23.9756 18.3905 22.1096 19.4193 20.6024Z" fill="black"/>
<path fill-rule="evenodd" clip-rule="evenodd" d="M15.3298 0C15.5305 1.31578 14.966 2.61961 14.2258 3.5287C13.4354 4.50955 12.0554 5.27509 10.7256 5.22724C10.4872 3.95931 11.1019 2.65547 11.8547 1.78227C12.6952 0.825342 14.1129 0.0837316 15.3298 0Z" fill="black"/>
</svg>
